<svg viewBox="0 0 318 318" xmlns="http://www.w3.org/2000/svg"><path d="M274.1 35.5L174.6 109.4l18.5-44.8z" fill="#CDBDB2"/><path d="M44.4 35.5l98.3 74.6L124.1 65z" fill="#CDBDB2"/><path d="M238.3 206.8l-29.5 45.4 63 17.4 18-62.3z" fill="#F6851B"/><path d="M29.2 206.8l17.9 62.3 63-17.4-29.4-45.4z" fill="#F6851B"/><path d="M92.2 172l-15.6 23.8 63.5 2.8-.7-68z" fill="#F6851B"/><path d="M225.8 172l-47.3-43.4-.5 68 63.5-2.8z" fill="#F6851B"/><path d="M89.8 229.4l37.7-18.3-32.6-25.4z" fill="#C0AD9E"/><path d="M190.6 211.1l37.6 18.3-5-43.7z" fill="#C0AD9E"/><path d="M228.2 229.4l-37.6-18.3 5 43.7 37.7-18.3-5-7.1z" fill="#161412"/><path d="M89.8 229.4l5 43.7 37.7 18.3-37.6-18.3-5-43.7z" fill="#161412"/></svg>