<svg viewBox="0 0 197 203" xmlns="http://www.w3.org/2000/svg"><rect width="197" height="203" rx="30" fill="#14F195"/><path d="M98.5 29.5c-18 0-35 7-47 19.5-12.5 12-19.5 29-19.5 47.5 0 18 7 35 19.5 47 12 12.5 29 19.5 47 19.5s35-7 47-19.5c12.5-12 19.5-29 19.5-47 0-18.5-7-35.5-19.5-47.5-12-12.5-29-19.5-47-19.5m0 14c14 0 27 5.5 36.5 15 9.5 9.5 15 22.5 15 36.5 0 14-5.5 27-15 36.5-9.5 9.5-22.5 15-36.5 15-14 0-27-5.5-36.5-15-9.5-9.5-15-22.5-15-36.5 0-14 5.5-27 15-36.5 9.5-9.5 22.5-15 36.5-15" fill="#000"/></svg>